<?xml version="1.0"?>
<svg xmlns="http://www.w3.org/2000/svg" xmlns:xlink="http://www.w3.org/1999/xlink" xmlns:svgjs="http://svgjs.com/svgjs" version="1.1" width="512" height="512" x="0" y="0" viewBox="0 0 512 512" style="enable-background:new 0 0 512 512" xml:space="preserve" class=""><g><path xmlns="http://www.w3.org/2000/svg" d="m89.183594 44.902344c4.261718 18.875 27.164062 26.316406 41.707031 13.550781 2.460937-2.15625 6.136719.515625 4.847656 3.519531-7.648437 17.777344 6.507813 37.261719 25.777344 35.480469 3.257813-.300781 4.660156 4.023437 1.851563 5.695313-16.636719 9.886718-16.636719 33.96875 0 43.855468 2.808593 1.671875 1.40625 5.996094-1.851563 5.695313-19.269531-1.777344-33.425781 17.703125-25.777344 35.480469 1.292969 3.003906-2.386719 5.679687-4.847656 3.519531-14.542969-12.761719-37.445313-5.320313-41.707031 13.554687-.722656 3.1875-5.269532 3.1875-5.988282 0-4.265624-18.875-27.167968-26.320312-41.710937-13.554687-2.457031 2.160156-6.136719-.515625-4.84375-3.519531 7.644531-17.777344-6.507813-37.257813-25.777344-35.480469-3.257812.300781-4.664062-4.023438-1.851562-5.695313 16.632812-9.886718 16.632812-33.96875 0-43.855468-2.8125-1.671876-1.40625-5.996094 1.851562-5.695313 19.265625 1.777344 33.421875-17.703125 25.777344-35.480469-1.292969-3.003906 2.386719-5.675781 4.84375-3.519531 14.542969 12.765625 37.445313 5.324219 41.710937-13.550781.71875-3.191406 5.265626-3.191406 5.988282 0zm0 0" fill="#fd8f31" data-original="#fd8f31" style="" class=""/><path xmlns="http://www.w3.org/2000/svg" d="m163.363281 147.007812c-16.632812-9.890624-16.632812-33.972656 0-43.859374 2.8125-1.671876 1.410157-5.996094-1.851562-5.695313-19.265625 1.78125-33.421875-17.703125-25.777344-35.476563 1.292969-3.007812-2.386719-5.679687-4.84375-3.523437-14.542969 12.765625-37.445313 5.324219-41.710937-13.550781-.71875-3.191406-5.265626-3.191406-5.988282 0-1.574218 6.980468-5.703125 12.386718-11.011718 15.796875 18.828124 15.136719 30.894531 38.34375 30.894531 64.378906 0 26.039063-12.066407 49.246094-30.894531 64.378906 5.308593 3.410157 9.4375 8.820313 11.011718 15.796875.722656 3.191406 5.269532 3.191406 5.988282 0 4.265624-18.875 27.167968-26.316406 41.710937-13.550781 2.457031 2.15625 6.136719-.515625 4.84375-3.519531-7.644531-17.777344 6.511719-37.257813 25.777344-35.480469 3.261719.300781 4.664062-4.027344 1.851562-5.695313zm0 0" fill="#ff7f1f" data-original="#ff7f1f" style="" class=""/><path xmlns="http://www.w3.org/2000/svg" d="m120.039062 125.078125c0 18.695313-15.15625 33.851563-33.851562 33.851563s-33.847656-15.15625-33.847656-33.851563 15.152344-33.851563 33.847656-33.851563 33.851562 15.15625 33.851562 33.851563zm0 0" fill="#fccf3f" data-original="#fccf3f" style="" class=""/><path xmlns="http://www.w3.org/2000/svg" d="m331.726562 313.613281v-245.773437c0-33.324219-27.015624-60.339844-60.339843-60.339844-33.320313 0-60.335938 27.015625-60.335938 60.339844v245.773437c-26.996093 18.996094-44.636719 50.390625-44.636719 85.910157 0 57.976562 47 104.976562 104.976563 104.976562s104.976563-47 104.976563-104.976562c0-35.519532-17.644532-66.914063-44.640626-85.910157zm0 0" fill="#d8d8d8" data-original="#d8d8d8" style="" class=""/><path xmlns="http://www.w3.org/2000/svg" d="m271.386719 470.117188c-39.972657 0-72.5-32.523438-72.5-72.5 0-30.355469 18.867187-57.382813 47.171875-67.929688v-261.847656c0-13.96875 11.363281-25.332032 25.328125-25.332032 13.96875 0 25.332031 11.363282 25.332031 25.332032v261.847656c28.304688 10.546875 47.167969 37.574219 47.167969 67.929688 0 39.976562-32.523438 72.5-72.5 72.5zm0 0" fill="#f3e8d7" data-original="#f3e8d7" style="" class=""/><path xmlns="http://www.w3.org/2000/svg" d="m246.058594 114.152344v215.539062c-28.304688 10.542969-47.171875 37.570313-47.171875 67.925782 0 39.976562 32.523437 72.5 72.5 72.5 39.980469 0 72.5-32.519532 72.5-72.5 0-30.355469-18.863281-57.382813-47.167969-67.925782v-215.539062zm0 0" fill="#fc4e51" data-original="#fc4e51" style="" class=""/><path xmlns="http://www.w3.org/2000/svg" d="m296.71875 329.6875v-215.535156h-50.660156v215.539062s35.019531 16.25 35.019531 67.925782c0 28.734374-16.800781 53.617187-41.09375 65.339843 9.507813 4.589844 20.160156 7.160157 31.40625 7.160157 39.976563 0 72.5-32.519532 72.5-72.5-.003906-30.355469-18.867187-57.382813-47.171875-67.929688zm0 0" fill="#e5394b" data-original="#e5394b" style="" class=""/><path xmlns="http://www.w3.org/2000/svg" d="m415.300781 167.4375h-43.511719c-4.140624 0-7.5 3.359375-7.5 7.5s3.359376 7.5 7.5 7.5h43.511719c4.140625 0 7.5-3.359375 7.5-7.5s-3.359375-7.5-7.5-7.5zm0 0" fill="#000000" data-original="#000000" style="" class=""/><path xmlns="http://www.w3.org/2000/svg" d="m371.789062 121.652344h19.753907c4.140625 0 7.5-3.359375 7.5-7.5 0-4.144532-3.359375-7.5-7.5-7.5h-19.753907c-4.140624 0-7.5 3.355468-7.5 7.5 0 4.140625 3.359376 7.5 7.5 7.5zm0 0" fill="#000000" data-original="#000000" style="" class=""/><path xmlns="http://www.w3.org/2000/svg" d="m371.789062 60.863281h26.753907c4.144531 0 7.5-3.355469 7.5-7.5 0-4.140625-3.355469-7.5-7.5-7.5h-26.753907c-4.140624 0-7.5 3.359375-7.5 7.5 0 4.144531 3.359376 7.5 7.5 7.5zm0 0" fill="#000000" data-original="#000000" style="" class=""/><path xmlns="http://www.w3.org/2000/svg" d="m398.546875 289.011719h-26.757813c-4.140624 0-7.5 3.355469-7.5 7.5 0 4.140625 3.359376 7.5 7.5 7.5h26.757813c4.140625 0 7.5-3.359375 7.5-7.5 0-4.144531-3.359375-7.5-7.5-7.5zm0 0" fill="#000000" data-original="#000000" style="" class=""/><path xmlns="http://www.w3.org/2000/svg" d="m371.789062 243.222656h19.753907c4.140625 0 7.5-3.355468 7.5-7.5 0-4.140625-3.359375-7.5-7.5-7.5h-19.753907c-4.140624 0-7.5 3.359375-7.5 7.5 0 4.144532 3.359376 7.5 7.5 7.5zm0 0" fill="#000000" data-original="#000000" style="" class=""/><path xmlns="http://www.w3.org/2000/svg" d="m339.226562 309.804688v-241.964844c0-37.40625-30.429687-67.839844-67.839843-67.839844-37.402344 0-67.835938 30.433594-67.835938 67.839844v241.964844c-28.023437 21.226562-44.640625 54.46875-44.640625 89.71875 0 62.019531 50.457032 112.476562 112.476563 112.476562 62.023437 0 112.480469-50.457031 112.480469-112.476562 0-35.25-16.613282-68.492188-44.640626-89.71875zm-67.839843 187.195312c-53.746094 0-97.476563-43.726562-97.476563-97.476562 0-31.6875 15.5-61.511719 41.457032-79.773438 1.996093-1.40625 3.183593-3.695312 3.183593-6.136719v-245.773437c0-29.136719 23.703125-52.839844 52.835938-52.839844 29.136719 0 52.839843 23.703125 52.839843 52.839844v245.773437c0 2.441407 1.1875 4.730469 3.183594 6.136719 25.957032 18.265625 41.457032 48.085938 41.457032 79.773438 0 53.75-43.730469 97.476562-97.480469 97.476562zm0 0" fill="#000000" data-original="#000000" style="" class=""/><path xmlns="http://www.w3.org/2000/svg" d="m304.21875 324.667969v-256.828125c0-18.105469-14.726562-32.832032-32.832031-32.832032-18.101563 0-32.828125 14.726563-32.828125 32.832032v192.617187c0 4.144531 3.359375 7.5 7.5 7.5s7.5-3.355469 7.5-7.5v-138.804687h35.660156v208.035156c0 3.132812 1.945312 5.9375 4.878906 7.03125 25.296875 9.421875 42.289063 33.894531 42.289063 60.898438 0 35.84375-29.15625 65-65 65-35.839844 0-65-29.15625-65-65 0-27.003907 16.996093-51.476563 42.289062-60.898438 2.9375-1.097656 4.882813-3.898438 4.882813-7.03125v-39.222656c0-4.140625-3.359375-7.5-7.5-7.5s-7.5 3.359375-7.5 7.5v34.203125c-28.417969 12.804687-47.171875 41.484375-47.171875 72.949219 0 44.113281 35.890625 80 80 80 44.113281 0 80-35.886719 80-80 0-31.464844-18.75-60.140626-47.167969-72.949219zm-50.660156-218.015625v-38.8125c0-9.832032 8-17.832032 17.832031-17.832032 9.828125 0 17.828125 8 17.828125 17.832032v38.8125zm0 0" fill="#000000" data-original="#000000" style="" class=""/><path xmlns="http://www.w3.org/2000/svg" d="m160.824219 160.167969c11.195312 1.027343 16.027343-13.871094 6.375-19.609375-11.738281-6.976563-11.757813-23.972656 0-30.960938 9.660156-5.746094 4.808593-20.640625-6.375-19.613281-13.609375 1.261719-23.59375-12.5-18.199219-25.046875 4.441406-10.324219-8.242188-19.527344-16.679688-12.121094-10.261718 9.007813-26.4375 3.773438-29.449218-9.566406-2.476563-10.964844-18.144532-10.953125-20.617188 0-3.007812 13.316406-19.167968 18.585938-29.449218 9.566406-8.441407-7.414062-21.117188 1.800782-16.679688 12.121094 5.402344 12.558594-4.601562 26.304688-18.199219 25.046875-11.191406-1.019531-16.027343 13.871094-6.371093 19.613281 11.753906 6.988282 11.730468 23.988282-.003907 30.960938-9.648437 5.738281-4.820312 20.632812 6.375 19.609375 13.59375-1.261719 23.601563 12.488281 18.199219 25.046875-4.441406 10.324218 8.242188 19.527344 16.679688 12.121094 10.261718-9.007813 26.4375-3.769532 29.449218 9.566406 2.476563 10.964844 18.144532 10.953125 20.617188 0 3.007812-13.316406 19.171875-18.589844 29.449218-9.566406 8.445313 7.410156 21.121094-1.804688 16.679688-12.121094-5.390625-12.53125 4.582031-26.304688 18.199219-25.046875zm-9.910157-14.0625c-15.132812 3.859375-25.742187 18.257812-24.722656 34.027343-14.511718-5.773437-31.554687-.359374-40 13-8.359375-13.222656-25.335937-18.835937-40.003906-13 1.011719-15.621093-9.4375-30.128906-24.722656-34.027343 9.976562-12.015625 10.09375-29.898438 0-42.058594 15.203125-3.875 25.738281-18.320313 24.722656-34.027344 14.542969 5.785157 31.574219.335938 40.003906-12.996093 8.382813 13.261718 25.375 18.8125 40 12.996093-1.011718 15.621094 9.4375 30.128907 24.722656 34.027344-10.027343 12.078125-10.050781 29.957031 0 42.058594zm0 0" fill="#000000" data-original="#000000" style="" class=""/><path xmlns="http://www.w3.org/2000/svg" d="m86.1875 83.726562c-22.800781 0-41.347656 18.550782-41.347656 41.351563s18.546875 41.351563 41.347656 41.351563 41.351562-18.550782 41.351562-41.351563-18.550781-41.351563-41.351562-41.351563zm0 67.699219c-14.527344 0-26.347656-11.820312-26.347656-26.347656 0-14.53125 11.820312-26.351563 26.347656-26.351563 14.53125 0 26.351562 11.820313 26.351562 26.351563 0 14.527344-11.820312 26.347656-26.351562 26.347656zm0 0" fill="#000000" data-original="#000000" style="" class=""/></g></svg>
